<?xml version="1.0" encoding="utf-8"?>
<!-- Generator: Adobe Illustrator 27.7.0, SVG Export Plug-In . SVG Version: 6.00 Build 0)  -->
<svg version="1.1" id="Layer_1" xmlns="http://www.w3.org/2000/svg" xmlns:xlink="http://www.w3.org/1999/xlink" x="0px" y="0px"
	 viewBox="0 0 1080 1080" style="enable-background:new 0 0 1080 1080;" xml:space="preserve">
<style type="text/css">
	.st0{fill:#6222CC;}
</style>
<path class="st0" d="M540,73.63C282.43,73.63,73.63,282.43,73.63,540s208.8,466.37,466.37,466.37
	c257.57,0,466.37-208.8,466.37-466.37S797.57,73.63,540,73.63z M401.08,696.58L285.56,581.06l-19.47-19.47
	c-10.75-10.75-10.75-28.19,0-38.94l19.47-19.47l115.52-115.52c10.75-10.75,28.19-10.75,38.94,0h0c10.75,10.75,10.75,28.19,0,38.94
	l-96.05,96.05c-10.75,10.75-10.75,28.19,0,38.94l96.05,96.05c10.75,10.75,10.75,28.19,0,38.94l0,0
	C429.26,707.33,411.83,707.33,401.08,696.58z M494.16,774.67c-16.19,16.19-42.44,16.19-58.63,0v0c-16.19-16.19-16.19-42.44,0-58.63
	l144.61-144.61c16.19-16.19,16.19-42.44,0-58.63L435.54,368.19c-16.19-16.19-16.19-42.44,0-58.63v0c16.19-16.19,42.44-16.19,58.63,0
	l173.92,173.93l29.31,29.31c16.19,16.19,16.19,42.44,0,58.63l-29.31,29.31L494.16,774.67z M813.91,561.59l-19.47,19.47
	L678.92,696.58c-10.75,10.75-28.19,10.75-38.94,0c-10.75-10.75-10.75-28.19,0-38.94l96.05-96.05c10.75-10.75,10.75-28.19,0-38.94
	l-96.05-96.05c-10.75-10.75-10.75-28.19,0-38.94v0c10.75-10.75,28.19-10.75,38.94,0l115.52,115.52l19.47,19.47
	C824.66,533.4,824.66,550.84,813.91,561.59z"/>
</svg>
