<?xml version="1.0" encoding="utf-8"?>
<!-- Generator: Adobe Illustrator 27.7.0, SVG Export Plug-In . SVG Version: 6.00 Build 0)  -->
<svg version="1.1" id="Layer_1" xmlns="http://www.w3.org/2000/svg" xmlns:xlink="http://www.w3.org/1999/xlink" x="0px" y="0px"
	 viewBox="0 0 1080 1080" style="enable-background:new 0 0 1080 1080;" xml:space="preserve">
<style type="text/css">
	.st0{fill:#6222CC;}
</style>
<g>
	<path class="st0" d="M387.13,488.17c-5,0-9.06,4.06-9.06,9.06v19.34h-28.39v-19.34c0-5-4.06-9.06-9.06-9.06
		c-5,0-9.06,4.06-9.06,9.06v56.52c0,5,4.06,9.06,9.06,9.06c5,0,9.06-4.06,9.06-9.06v-19.6h28.39v19.6c0,5,4.05,9.06,9.06,9.06
		c5,0,9.06-4.06,9.06-9.06v-56.52C396.19,492.23,392.14,488.17,387.13,488.17z"/>
	<path class="st0" d="M453.39,489.66h-41.1c-4.87,0-8.79,3.92-8.79,8.79c0,4.87,3.92,8.79,8.79,8.79h41.1
		c4.87,0,8.79-3.92,8.79-8.79C462.18,493.58,458.26,489.66,453.39,489.66z"/>
	<path class="st0" d="M449.61,533.87c4.6,0,8.38-3.65,8.38-8.38c0-4.73-3.79-8.38-8.38-8.38h-37.72c-4.6,0-8.38,3.65-8.38,8.38
		c0,4.73,3.78,8.38,8.38,8.38H449.61z"/>
	<path class="st0" d="M453.39,543.74h-41.1c-4.87,0-8.79,3.92-8.79,8.79s3.92,8.79,8.79,8.79h41.1c4.87,0,8.79-3.92,8.79-8.79
		S458.26,543.74,453.39,543.74z"/>
	<path class="st0" d="M501.54,487.9c-18.12,0-32.31,14.47-32.31,32.85v32.99c0,5,4.05,9.06,9.06,9.06c5,0,9.06-4.06,9.06-9.06
		v-33.26c0-8.79,6.22-15.01,14.2-15.01c7.98,0,14.2,6.22,14.2,15.01v5.41h-15.82c-4.87,0-8.79,3.79-8.79,8.65
		c0,4.87,3.92,8.65,8.79,8.65h15.82v10.54c0,5,4.05,9.06,9.06,9.06c5,0,9.06-4.06,9.06-9.06v-32.99
		C533.85,502.37,519.65,487.9,501.54,487.9z"/>
	<path class="st0" d="M572.67,489.66H548.6c-4.05,0-7.44,3.38-7.44,7.44v56.79c0,4.06,3.38,7.44,7.44,7.44h24.07
		c21.63,0,36.91-16.09,36.91-35.83C609.58,505.75,594.3,489.66,572.67,489.66z M572.67,543.74h-13.39v-36.5h13.39
		c10.95,0,18.79,8.25,18.79,18.25C591.46,535.36,583.62,543.74,572.67,543.74z"/>
	<path class="st0" d="M776.5,488.17h-43.87h-11.57h-4h-25.19h-8.27c-13.25,0-22.99,9.46-22.99,22.31c0,12.84,9.74,22.17,22.99,22.17
		h22.58c2.69,0,4.94,2.38,4.72,5.26c-0.19,2.49-2.44,4.33-4.94,4.33h-34.12c-6.32,0-11.05,6.62-7.65,13.34
		c2.09,4.12,6.53,6.51,11.15,6.51h30.44c13.25,0,22.99-11.73,22.99-24.58c0-12.84-9.73-22.44-22.99-22.44H683.2
		c-2.46,0-4.55-1.74-4.72-4.27c-0.18-2.78,2.27-5.06,5.05-5.06h8.34h25.67h3.52h11.57h7.09v46.51c0,5,4.06,9.06,9.06,9.06
		c5,0,9.06-4.06,9.06-9.06v-46.51h18.66c4.87,0,8.79-3.92,8.79-8.79C785.29,492.09,781.37,488.17,776.5,488.17z"/>
	<path class="st0" d="M817.6,486.41c-18.12,0-32.31,14.47-32.31,32.85v32.99c0,5,4.05,9.06,9.06,9.06c5,0,9.06-4.06,9.06-9.06V519
		c0-8.79,6.22-15.01,14.2-15.01c7.98,0,14.2,6.22,14.2,15.01v5.41h-15.82c-4.87,0-8.79,3.79-8.79,8.65c0,4.87,3.92,8.65,8.79,8.65
		h15.82v10.55c0,5,4.05,9.06,9.06,9.06c5,0,9.06-4.06,9.06-9.06v-32.99C849.92,500.88,835.72,486.41,817.6,486.41z"/>
	<path class="st0" d="M921.59,511.56c0-12.84-10.41-23.39-23.39-23.39h-34.61c-5,0-9.06,4.06-9.06,9.06v55.03
		c0,5,4.05,9.06,9.06,9.06c5,0,9.06-4.06,9.06-9.06v-46.51h24.61c3.38,0,6.22,2.84,6.22,6.22c0,3.38-2.84,6.22-6.22,6.22h-11.09
		c-4.33,0-7.84,3.51-7.84,7.84c0,2.03,0.68,3.92,2.03,5.27l24.61,27.18c3.25,3.51,8.92,3.79,12.58,0.54
		c3.65-3.25,4.06-9.06,0.68-12.58l-12.17-12.84C915.1,530.36,921.59,521.7,921.59,511.56z"/>
	<path class="st0" d="M985.81,488.17h-55.44c-4.87,0-8.79,3.92-8.79,8.79c0,4.87,3.92,8.79,8.79,8.79h18.66v46.51
		c0,5,4.06,9.06,9.06,9.06c5,0,9.06-4.06,9.06-9.06v-46.51h18.66c4.87,0,8.79-3.92,8.79-8.79
		C994.6,492.09,990.68,488.17,985.81,488.17z"/>
	<path class="st0" d="M648.16,547.87h-28.84c-3.71,0-6.73,3.01-6.73,6.73c0,3.71,3.01,6.73,6.73,6.73h28.84
		c3.71,0,6.73-3.01,6.73-6.73C654.88,550.88,651.87,547.87,648.16,547.87z"/>
	<path class="st0" d="M193.87,415.4c-59.91,0-108.47,48.56-108.47,108.47s48.56,108.47,108.47,108.47
		c59.91,0,108.47-48.56,108.47-108.47S253.78,415.4,193.87,415.4z M161.56,560.28l-26.87-26.87l-4.53-4.53c-2.5-2.5-2.5-6.56,0-9.06
		l4.53-4.53l26.87-26.87c2.5-2.5,6.56-2.5,9.06,0h0c2.5,2.5,2.5,6.56,0,9.06l-22.34,22.34c-2.5,2.5-2.5,6.56,0,9.06l22.34,22.34
		c2.5,2.5,2.5,6.56,0,9.06l0,0C168.12,562.78,164.06,562.78,161.56,560.28z M183.21,578.45c-3.77,3.77-9.87,3.77-13.64,0v0
		c-3.77-3.77-3.77-9.87,0-13.64l33.63-33.63c3.77-3.77,3.77-9.87,0-13.64l-33.63-33.63c-3.77-3.77-3.77-9.87,0-13.64
		s9.87-3.77,13.64,0l40.45,40.45l6.82,6.82c3.77,3.77,3.77,9.87,0,13.64l-6.82,6.82L183.21,578.45z M257.58,528.89l-4.53,4.53
		l-26.87,26.87c-2.5,2.5-6.56,2.5-9.06,0c-2.5-2.5-2.5-6.56,0-9.06l22.34-22.34c2.5-2.5,2.5-6.56,0-9.06l-22.34-22.34
		c-2.5-2.5-2.5-6.56,0-9.06c2.5-2.5,6.56-2.5,9.06,0l26.87,26.87l4.53,4.53C260.08,522.33,260.08,526.39,257.58,528.89z"/>
</g>
</svg>
