<?xml version="1.0" encoding="utf-8"?>
<!-- Generator: Adobe Illustrator 27.7.0, SVG Export Plug-In . SVG Version: 6.00 Build 0)  -->
<svg version="1.1" id="Layer_1" xmlns="http://www.w3.org/2000/svg" xmlns:xlink="http://www.w3.org/1999/xlink" x="0px" y="0px"
	 viewBox="0 0 1080 1080" style="enable-background:new 0 0 1080 1080;" xml:space="preserve">
<style type="text/css">
	.st0{fill:#5C4A82;}
</style>
<g>
	<g>
		<path class="st0" d="M303.8,513.71H190.95v88.27c0,17.29-14.1,31.4-31.39,31.4c-17.3,0-31.4-14.11-31.4-31.4V365.37
			c0-17.29,14.1-31.39,31.4-31.39c17.29,0,31.39,14.11,31.39,31.39v88.28H303.8v-88.28c0-17.29,14.1-31.39,31.39-31.39
			c17.3,0,31.4,14.11,31.4,31.39v236.61c0,17.29-14.1,31.4-31.4,31.4c-17.29,0-31.39-14.11-31.39-31.4V513.71z"/>
		<path class="st0" d="M470.39,628.37c-16.38,0-30.03-13.65-30.03-30.03c0-16.38,13.66-30.03,30.03-30.03h104.66
			c17.74,0,29.12-12.28,29.12-27.3c0-15.47-11.38-27.3-29.12-27.3h-55.52c-54.14,0-91-38.68-91-86.91c0-48.69,36.85-87.82,91-87.82
			h105.56c16.39,0,30.03,13.65,30.03,30.03c0,16.38-13.64,30.03-30.03,30.03H520.44c-17.74,0-29.12,12.29-29.12,27.3
			c0,15.47,11.38,27.3,29.12,27.3h55.52c54.14,0,91,38.68,91,86.91c0,48.69-36.85,87.82-91,87.82H470.39z"/>
		<path class="st0" d="M868.11,628.37c-86,0-148.33-63.25-148.33-144.7s62.33-144.7,148.33-144.7h53.7
			c16.38,0,30.03,13.65,30.03,30.03c0,16.38-13.66,30.03-30.03,30.03h-52.79c-50.05,0-86.45,36.86-86.45,84.64
			s36.4,84.63,86.45,84.63h52.79c16.38,0,30.03,13.66,30.03,30.03c0,16.38-13.66,30.03-30.03,30.03H868.11z"/>
	</g>
	<polygon class="st0" points="352.77,746.02 277.9,703.04 203.03,746.02 124.95,701.2 131.37,690.01 203.03,731.16 277.9,688.17 
		352.77,731.16 427.64,688.17 502.51,731.16 577.39,688.17 652.26,731.16 727.14,688.17 802.04,731.16 876.94,688.17 955.05,733 
		948.63,744.18 876.94,703.04 802.04,746.02 727.14,703.04 652.26,746.02 577.39,703.04 502.51,746.02 427.64,703.04 	"/>
</g>
</svg>
