<?xml version="1.0" encoding="utf-8"?>
<!-- Generator: Adobe Illustrator 27.7.0, SVG Export Plug-In . SVG Version: 6.00 Build 0)  -->
<svg version="1.1" id="Layer_1" xmlns="http://www.w3.org/2000/svg" xmlns:xlink="http://www.w3.org/1999/xlink" x="0px" y="0px"
	 viewBox="0 0 1080 1080" style="enable-background:new 0 0 1080 1080;" xml:space="preserve">
<style type="text/css">
	.st0{fill:#FFFFFF;}
	.st1{fill:none;stroke:#FFFFFF;stroke-width:8.4841;stroke-miterlimit:10;}
	.st2{fill:none;stroke:#FFFFFF;stroke-width:8.4179;stroke-miterlimit:10;}
</style>
<g>
	<path class="st0" d="M249.17,417.18h-68.55v47.33c0,12.08-9.79,21.87-21.87,21.87c-12.07,0-21.87-9.79-21.87-21.87V328.07
		c0-12.07,9.79-21.87,21.87-21.87c12.08,0,21.87,9.79,21.87,21.87v46.68h68.55v-46.68c0-12.07,9.79-21.87,21.86-21.87
		c12.08,0,21.87,9.79,21.87,21.87v136.44c0,12.08-9.79,21.87-21.87,21.87c-12.07,0-21.86-9.79-21.86-21.87V417.18z"/>
	<path class="st0" d="M331.77,352.23c-11.76,0-21.22-9.47-21.22-21.22c0-11.75,9.46-21.22,21.22-21.22h99.22
		c11.76,0,21.22,9.46,21.22,21.22c0,11.75-9.46,21.22-21.22,21.22H331.77z M330.79,416.53c-11.1,0-20.24-8.81-20.24-20.24
		s9.13-20.24,20.24-20.24h91.07c11.09,0,20.24,8.81,20.24,20.24s-9.14,20.24-20.24,20.24H330.79z M331.77,482.79
		c-11.76,0-21.22-9.46-21.22-21.22c0-11.75,9.46-21.22,21.22-21.22h99.22c11.76,0,21.22,9.46,21.22,21.22
		c0,11.75-9.46,21.22-21.22,21.22H331.77z"/>
	<path class="st0" d="M581.48,439.05h-38.19c-11.75,0-21.22-9.14-21.22-20.89c0-11.75,9.47-20.89,21.22-20.89h38.19v-13.06
		c0-21.22-15.02-36.23-34.27-36.23c-19.26,0-34.27,15.01-34.27,36.23v80.29c0,12.08-9.8,21.87-21.87,21.87
		c-12.08,0-21.87-9.79-21.87-21.87v-79.64c0-44.39,34.27-79.31,78.01-79.31c43.73,0,78,34.92,78,79.31v79.64
		c0,12.08-9.79,21.87-21.86,21.87c-12.08,0-21.87-9.79-21.87-21.87V439.05z"/>
	<path class="st0" d="M660.83,482.79c-9.79,0-17.95-8.16-17.95-17.95V327.75c0-9.8,8.16-17.95,17.95-17.95h58.1
		c52.22,0,89.11,38.84,89.11,86.49s-36.89,86.49-89.11,86.49H660.83z M718.93,440.36c26.44,0,45.37-20.24,45.37-44.06
		c0-24.15-18.93-44.06-45.37-44.06h-32.32v88.12H718.93z"/>
	<path class="st0" d="M163.97,680.62c-11.75,0-21.22-9.46-21.22-21.22c0-11.75,9.47-21.22,21.22-21.22h82.9
		c6.2,0,11.42-5.22,11.42-11.43c0-6.53-5.22-11.75-11.42-11.75h-54.51c-31.98,0-55.49-22.52-55.49-53.53
		c0-31.01,23.5-53.85,55.49-53.85h81.92c11.75,0,21.22,9.46,21.22,21.22c0,11.75-9.47,21.22-21.22,21.22h-82.9
		c-6.2,0-11.42,5.22-11.42,11.42c0,6.53,5.22,11.1,11.42,11.1h54.51c31.99,0,55.49,23.17,55.49,54.18
		c0,31.01-23.5,53.86-55.49,53.86H163.97z"/>
	<path class="st0" d="M327.84,550.07h-45.05c-11.75,0-21.21-9.47-21.21-21.22c0-11.75,9.46-21.22,21.21-21.22h133.82
		c11.76,0,21.22,9.46,21.22,21.22c0,11.75-9.46,21.22-21.22,21.22h-45.04v112.28c0,12.08-9.8,21.87-21.87,21.87
		c-12.07,0-21.87-9.79-21.87-21.87V550.07z"/>
	<path class="st0" d="M550.11,636.89h-38.19c-11.75,0-21.22-9.14-21.22-20.89c0-11.75,9.47-20.89,21.22-20.89h38.19v-13.06
		c0-21.22-15.02-36.23-34.27-36.23c-19.26,0-34.27,15.01-34.27,36.23v80.29c0,12.08-9.8,21.87-21.87,21.87
		c-12.08,0-21.87-9.79-21.87-21.87V582.7c0-44.39,34.27-79.31,78.01-79.31c43.73,0,78,34.92,78,79.31v79.64
		c0,12.08-9.79,21.87-21.86,21.87c-12.08,0-21.87-9.79-21.87-21.87V636.89z"/>
	<path class="st0" d="M667.31,611.75c-3.27-3.26-4.9-7.83-4.9-12.73c0-10.44,8.49-18.93,18.94-18.93h26.76
		c8.16,0,15.02-6.85,15.02-15.02c0-8.16-6.85-15.01-15.02-15.01H648.7v112.28c0,12.08-9.79,21.87-21.86,21.87
		c-12.08,0-21.87-9.79-21.87-21.87V529.5c0-12.07,9.79-21.87,21.87-21.87h83.56c31.33,0,56.47,25.46,56.47,56.46
		c0,24.48-15.67,45.37-37.54,53.2l29.38,31.01c8.16,8.49,7.18,22.52-1.63,30.36c-8.81,7.83-22.52,7.18-30.36-1.31L667.31,611.75z"/>
	<path class="st0" d="M833.12,550.07h-45.05c-11.75,0-21.21-9.47-21.21-21.22c0-11.75,9.46-21.22,21.21-21.22H921.9
		c11.76,0,21.22,9.46,21.22,21.22c0,11.75-9.46,21.22-21.22,21.22h-45.04v112.28c0,12.08-9.8,21.87-21.87,21.87
		s-21.87-9.79-21.87-21.87V550.07z"/>
	<rect x="212.33" y="507.63" class="st0" width="98.38" height="42.43"/>
	<path class="st0" d="M929.8,482.79H829.39c-7.35,0-13.31-5.96-13.31-13.31v0c0-7.35,5.96-13.31,13.31-13.31H929.8
		c7.35,0,13.31,5.96,13.31,13.31v0C943.12,476.83,937.16,482.79,929.8,482.79z"/>
	<path class="st0" d="M356.52,719.79c11.15,0,20.76,5.61,24.83,16.07h-10.53c-2.84-5.69-7.92-8.38-14.3-8.38
		c-10.61,0-18.3,7.53-18.3,19.6c0,12.07,7.69,19.68,18.3,19.68c6.38,0,11.45-2.69,14.3-8.38h10.53
		c-4.07,10.45-13.68,15.99-24.83,15.99c-15.07,0-27.29-11.22-27.29-27.29C329.23,731.09,341.45,719.79,356.52,719.79z"/>
	<path class="st0" d="M439.79,774.45c-15.07,0-27.29-11.3-27.29-27.37c0-15.99,12.22-27.29,27.29-27.29
		c15.22,0,27.29,11.3,27.29,27.29C467.08,763.14,455.01,774.45,439.79,774.45z M439.79,766.84c10.61,0,18.29-7.69,18.29-19.76
		c0-12.07-7.69-19.6-18.29-19.6c-10.61,0-18.3,7.53-18.3,19.6C421.49,759.15,429.18,766.84,439.79,766.84z"/>
	<path class="st0" d="M545.35,747.39c0,16.45-11.23,26.52-28.37,26.52h-17.45v-53.43h17.45
		C534.13,720.48,545.35,730.86,545.35,747.39z M516.98,766.76c12.61,0,19.37-7.23,19.37-19.37c0-12.22-6.77-19.76-19.37-19.76h-8.69
		v39.13H516.98z"/>
	<path class="st0" d="M577.88,720.48h8.76v53.43h-8.76V720.48z"/>
	<path class="st0" d="M665.91,720.4v53.51h-8.76l-26.37-39.9v39.9h-8.76V720.4h8.76l26.37,39.82V720.4H665.91z"/>
	<path class="st0" d="M750.49,735.85h-10.53c-2.84-5.38-7.92-8.07-14.3-8.07c-10.61,0-18.3,7.53-18.3,19.3
		c0,11.76,7.69,19.37,18.3,19.37c9.69,0,15.76-5.84,17.07-14.84h-20.06v-7h29.45v6.84c-1.62,12.38-12.07,22.91-26.45,22.91
		c-15.07,0-27.29-11.22-27.29-27.29c0-15.99,12.22-27.29,27.29-27.29C736.8,719.79,746.41,725.4,750.49,735.85z"/>
	<g>
		<polyline class="st1" points="790.17,735.88 820.76,758.51 851.34,735.88 881.93,758.51 912.52,735.88 943.12,758.51 		"/>
	</g>
	<g>
		<polyline class="st2" points="288.64,751.84 258.29,729.39 227.94,751.84 197.59,729.39 167.24,751.84 136.88,729.39 		"/>
	</g>
</g>
</svg>
