<?xml version="1.0" encoding="utf-8"?>
<!-- Generator: Adobe Illustrator 27.7.0, SVG Export Plug-In . SVG Version: 6.00 Build 0)  -->
<svg version="1.1" id="Layer_1" xmlns="http://www.w3.org/2000/svg" xmlns:xlink="http://www.w3.org/1999/xlink" x="0px" y="0px"
	 viewBox="0 0 1080 1080" style="enable-background:new 0 0 1080 1080;" xml:space="preserve">
<g>
	<path d="M290.17,671.83c7.91,0,14.33-6.42,14.33-14.33v-31.01h44.92v31.01c0,7.91,6.41,14.33,14.33,14.33
		c7.92,0,14.33-6.42,14.33-14.33v-89.4c0-7.91-6.41-14.33-14.33-14.33c-7.91,0-14.33,6.42-14.33,14.33v30.59H304.5V568.1
		c0-7.91-6.42-14.33-14.33-14.33c-7.91,0-14.33,6.42-14.33,14.33v89.4C275.84,665.42,282.26,671.83,290.17,671.83z"/>
	<path d="M462.57,626.06c7.27,0,13.26-5.77,13.26-13.26s-5.99-13.26-13.26-13.26H402.9c-7.27,0-13.26,5.77-13.26,13.26
		s5.99,13.26,13.26,13.26H462.57z"/>
	<path d="M403.54,669.48h65.02c7.7,0,13.9-6.2,13.9-13.9s-6.2-13.9-13.9-13.9h-65.02c-7.7,0-13.9,6.2-13.9,13.9
		S395.84,669.48,403.54,669.48z"/>
	<path d="M468.56,556.12h-65.02c-7.7,0-13.9,6.2-13.9,13.9c0,7.7,6.2,13.9,13.9,13.9h65.02c7.7,0,13.9-6.2,13.9-13.9
		C482.46,562.32,476.26,556.12,468.56,556.12z"/>
	<path d="M595.83,657.5v-52.19c0-29.09-22.46-51.97-51.11-51.97c-28.66,0-51.12,22.89-51.12,51.97v52.19
		c0,7.91,6.41,14.33,14.33,14.33c7.91,0,14.33-6.42,14.33-14.33v-52.61c0-13.9,9.83-23.74,22.46-23.74
		c12.62,0,22.46,9.84,22.46,23.74v8.56h-25.03c-7.7,0-13.9,5.99-13.9,13.69c0,7.7,6.2,13.69,13.9,13.69h25.03v16.68
		c0,7.91,6.41,14.33,14.33,14.33C589.42,671.83,595.83,665.42,595.83,657.5z"/>
	<path d="M619.17,556.12c-6.41,0-11.76,5.35-11.76,11.76v89.83c0,6.42,5.35,11.76,11.76,11.76h38.07
		c34.22,0,58.39-25.45,58.39-56.68c0-31.23-24.17-56.68-58.39-56.68H619.17z M686.97,612.8c0,15.61-12.4,28.87-29.73,28.87h-21.18
		v-57.75h21.18C674.56,583.93,686.97,596.97,686.97,612.8z"/>
	<path d="M415.3,801.47c7.91,0,14.33-6.42,14.33-14.33v-73.57h29.51c7.7,0,13.9-6.2,13.9-13.9c0-7.7-6.2-13.9-13.9-13.9h-69.4
		h-18.29h-5.57h-40.6H312.2c-20.96,0-36.36,14.97-36.36,35.29s15.4,35.08,36.36,35.08h35.72c4.06,0,7.48,3.42,7.48,7.7
		c0,4.07-3.42,7.49-7.48,7.49h-54.32c-7.7,0-13.9,6.2-13.9,13.9c0,7.7,6.2,13.9,13.9,13.9h53.68c20.96,0,36.36-14.97,36.36-35.29
		c0-20.32-15.4-35.5-36.36-35.5h-35.72c-4.06,0-7.48-3-7.48-7.27c0-4.06,3.42-7.48,7.48-7.48h13.72h40.6h5.57h18.29h11.22v73.57
		C400.97,795.05,407.39,801.47,415.3,801.47z"/>
	<path d="M524.16,682.98c-28.66,0-51.12,22.89-51.12,51.97v52.19c0,7.91,6.41,14.33,14.33,14.33c7.91,0,14.33-6.42,14.33-14.33
		v-52.61c0-13.9,9.83-23.74,22.46-23.74c12.62,0,22.46,9.84,22.46,23.74v8.56h-25.03c-7.7,0-13.9,5.99-13.9,13.69
		c0,7.7,6.2,13.69,13.9,13.69h25.03v16.68c0,7.91,6.41,14.33,14.33,14.33c7.91,0,14.33-6.42,14.33-14.33v-52.19
		C575.28,705.86,552.82,682.98,524.16,682.98z"/>
	<path d="M688.65,722.76c0-20.32-16.47-37-37-37H596.9c-7.92,0-14.33,6.42-14.33,14.33v87.05c0,7.91,6.41,14.33,14.33,14.33
		c7.91,0,14.33-6.42,14.33-14.33v-73.57h38.93c5.35,0,9.84,4.49,9.84,9.84c0,5.35-4.49,9.84-9.84,9.84h-17.54
		c-6.85,0-12.41,5.56-12.41,12.4c0,3.21,1.07,6.2,3.21,8.34l38.92,42.99c5.13,5.56,14.12,5.99,19.89,0.86
		c5.78-5.13,6.42-14.33,1.07-19.89l-19.25-20.32C678.39,752.49,688.65,738.8,688.65,722.76z"/>
	<path d="M732.07,713.56v73.57c0,7.91,6.42,14.33,14.33,14.33c7.91,0,14.33-6.42,14.33-14.33v-73.57h29.51c7.7,0,13.9-6.2,13.9-13.9
		c0-7.7-6.2-13.9-13.9-13.9h-87.69c-7.7,0-13.9,6.2-13.9,13.9c0,7.7,6.2,13.9,13.9,13.9H732.07z"/>
	<path d="M729.62,669.48h65.8c4.82,0,8.72-3.91,8.72-8.72c0-4.82-3.91-8.72-8.72-8.72h-65.8c-4.82,0-8.72,3.91-8.72,8.72
		C720.9,665.57,724.81,669.48,729.62,669.48z"/>
	<path d="M419.76,829.81c4.18,0,7.51,1.76,9.37,5.49h6.9c-2.67-6.85-8.97-10.53-16.27-10.53c-9.87,0-17.88,7.4-17.88,17.88
		c0,10.53,8.01,17.88,17.88,17.88c7.3,0,13.6-3.63,16.27-10.48h-6.9c-1.86,3.73-5.19,5.49-9.37,5.49c-6.95,0-11.99-4.99-11.99-12.9
		C407.77,834.75,412.81,829.81,419.76,829.81z"/>
	<path d="M474.33,824.78c-9.87,0-17.88,7.4-17.88,17.88c0,10.53,8.01,17.93,17.88,17.93c9.97,0,17.88-7.4,17.88-17.93
		C492.21,832.18,484.3,824.78,474.33,824.78z M474.33,855.61c-6.95,0-11.99-5.04-11.99-12.95c0-7.91,5.04-12.85,11.99-12.85
		c6.95,0,11.99,4.94,11.99,12.85C486.31,850.57,481.28,855.61,474.33,855.61z"/>
	<path d="M524.91,825.23h-11.44v35.01h11.44c11.23,0,18.59-6.6,18.59-17.38C543.5,832.03,536.14,825.23,524.91,825.23z
		 M524.91,855.56h-5.69v-25.64h5.69c8.26,0,12.69,4.94,12.69,12.95C537.61,850.82,533.17,855.56,524.91,855.56z"/>
	<rect x="564.82" y="825.23" width="5.74" height="35.01"/>
	<polygon points="616.76,851.27 599.48,825.18 593.74,825.18 593.74,860.24 599.48,860.24 599.48,834.1 616.76,860.24 622.5,860.24 
		622.5,825.18 616.76,825.18 	"/>
	<path d="M659.68,845.63h13.15c-0.86,5.89-4.84,9.72-11.18,9.72c-6.95,0-11.99-4.99-11.99-12.69c0-7.71,5.04-12.64,11.99-12.64
		c4.18,0,7.51,1.76,9.37,5.29h6.9c-2.67-6.85-8.97-10.53-16.27-10.53c-9.87,0-17.88,7.4-17.88,17.88c0,10.53,8.01,17.88,17.88,17.88
		c9.42,0,16.27-6.9,17.33-15.01v-4.48h-19.29V845.63z"/>
	<polygon points="784.1,831.87 764.05,846.69 744.01,831.87 723.96,846.69 705.57,833.09 702.27,837.56 723.96,853.6 744.01,838.78 
		764.05,853.6 784.1,838.78 802.49,852.38 805.8,847.91 	"/>
	<polygon points="335.51,842.35 315.62,827.64 295.73,842.35 277.48,828.85 274.2,833.29 295.73,849.21 315.62,834.5 335.51,849.21 
		355.4,834.5 373.64,848 376.92,843.56 355.4,827.64 	"/>
	<path d="M539.99,521.13c83.32,0,150.86-67.54,150.86-150.86s-67.54-150.86-150.86-150.86c-83.32,0-150.86,67.54-150.86,150.86
		S456.67,521.13,539.99,521.13z M572.34,320.99L572.34,320.99c3.48-3.48,9.12-3.48,12.6,0l37.37,37.37l6.3,6.3
		c3.48,3.48,3.48,9.12,0,12.6l-6.3,6.3l-37.37,37.37c-3.48,3.48-9.12,3.48-12.6,0c-3.48-3.48-3.48-9.12,0-12.6l31.07-31.07
		c3.48-3.48,3.48-9.12,0-12.6l-31.07-31.07C568.86,330.11,568.86,324.47,572.34,320.99z M506.2,295.73L506.2,295.73
		c5.24-5.24,13.73-5.24,18.96,0l56.26,56.26l9.48,9.48c5.24,5.24,5.24,13.73,0,18.96l-9.48,9.48l-56.26,56.26
		c-5.24,5.24-13.73,5.24-18.96,0v0c-5.24-5.24-5.24-13.73,0-18.96l46.78-46.78c5.24-5.24,5.24-13.73,0-18.96l-46.78-46.78
		C500.96,309.46,500.96,300.97,506.2,295.73z M451.39,364.66l6.3-6.3l37.37-37.37c3.48-3.48,9.12-3.48,12.6,0h0
		c3.48,3.48,3.48,9.12,0,12.6l-31.07,31.07c-3.48,3.48-3.48,9.12,0,12.6l31.07,31.07c3.48,3.48,3.48,9.12,0,12.6l0,0
		c-3.48,3.48-9.12,3.48-12.6,0l-37.37-37.37l-6.3-6.3C447.91,373.78,447.91,368.14,451.39,364.66z"/>
</g>
</svg>
