<?xml version="1.0" encoding="utf-8"?>
<!-- Generator: Adobe Illustrator 27.7.0, SVG Export Plug-In . SVG Version: 6.00 Build 0)  -->
<svg version="1.1" id="Layer_1" xmlns="http://www.w3.org/2000/svg" xmlns:xlink="http://www.w3.org/1999/xlink" x="0px" y="0px"
	 viewBox="0 0 1080 1080" style="enable-background:new 0 0 1080 1080;" xml:space="preserve">
<style type="text/css">
	.st0{fill:#5C4A82;}
</style>
<g>
	<path class="st0" d="M290.18,701.39c7.91,0,14.33-6.42,14.33-14.33v-31.01h44.92v31.01c0,7.91,6.41,14.33,14.33,14.33
		c7.92,0,14.33-6.42,14.33-14.33v-89.4c0-7.91-6.41-14.33-14.33-14.33c-7.91,0-14.33,6.42-14.33,14.33v30.59h-44.92v-30.59
		c0-7.91-6.42-14.33-14.33-14.33c-7.91,0-14.33,6.42-14.33,14.33v89.4C275.85,694.98,282.27,701.39,290.18,701.39z"/>
	<path class="st0" d="M462.58,655.62c7.27,0,13.26-5.77,13.26-13.26c0-7.49-5.99-13.26-13.26-13.26h-59.67
		c-7.27,0-13.26,5.77-13.26,13.26c0,7.49,5.99,13.26,13.26,13.26H462.58z"/>
	<path class="st0" d="M403.55,699.04h65.02c7.7,0,13.9-6.2,13.9-13.9c0-7.7-6.2-13.9-13.9-13.9h-65.02c-7.7,0-13.9,6.2-13.9,13.9
		C389.65,692.84,395.85,699.04,403.55,699.04z"/>
	<path class="st0" d="M468.57,585.69h-65.02c-7.7,0-13.9,6.2-13.9,13.9c0,7.7,6.2,13.9,13.9,13.9h65.02c7.7,0,13.9-6.2,13.9-13.9
		C482.47,591.89,476.27,585.69,468.57,585.69z"/>
	<path class="st0" d="M595.84,687.06v-52.19c0-29.09-22.46-51.97-51.11-51.97c-28.66,0-51.12,22.89-51.12,51.97v52.19
		c0,7.91,6.41,14.33,14.33,14.33c7.91,0,14.33-6.42,14.33-14.33v-52.61c0-13.9,9.83-23.74,22.46-23.74
		c12.62,0,22.46,9.84,22.46,23.74v8.56h-25.03c-7.7,0-13.9,5.99-13.9,13.69c0,7.7,6.2,13.69,13.9,13.69h25.03v16.68
		c0,7.91,6.41,14.33,14.33,14.33C589.43,701.39,595.84,694.98,595.84,687.06z"/>
	<path class="st0" d="M619.17,585.69c-6.41,0-11.76,5.35-11.76,11.76v89.83c0,6.42,5.35,11.76,11.76,11.76h38.07
		c34.22,0,58.39-25.45,58.39-56.68c0-31.23-24.17-56.68-58.39-56.68H619.17z M686.97,642.36c0,15.61-12.4,28.87-29.73,28.87h-21.18
		v-57.75h21.18C674.57,613.49,686.97,626.54,686.97,642.36z"/>
	<path class="st0" d="M415.31,831.03c7.91,0,14.33-6.42,14.33-14.33v-73.57h29.51c7.7,0,13.9-6.2,13.9-13.9
		c0-7.7-6.2-13.9-13.9-13.9h-69.4h-18.29h-5.57h-40.6h-13.08c-20.96,0-36.36,14.97-36.36,35.29c0,20.32,15.4,35.08,36.36,35.08
		h35.72c4.06,0,7.48,3.42,7.48,7.7c0,4.07-3.42,7.49-7.48,7.49H293.6c-7.7,0-13.9,6.2-13.9,13.9s6.2,13.9,13.9,13.9h53.68
		c20.96,0,36.36-14.97,36.36-35.29c0-20.32-15.4-35.5-36.36-35.5h-35.72c-4.06,0-7.48-3-7.48-7.27c0-4.06,3.42-7.48,7.48-7.48h13.72
		h40.6h5.57h18.29h11.22v73.57C400.98,824.61,407.39,831.03,415.31,831.03z"/>
	<path class="st0" d="M524.17,712.54c-28.66,0-51.12,22.89-51.12,51.97v52.19c0,7.91,6.41,14.33,14.33,14.33
		c7.91,0,14.33-6.42,14.33-14.33v-52.61c0-13.9,9.83-23.74,22.46-23.74c12.62,0,22.46,9.84,22.46,23.74v8.56H521.6
		c-7.7,0-13.9,5.99-13.9,13.69c0,7.7,6.2,13.69,13.9,13.69h25.03v16.68c0,7.91,6.41,14.33,14.33,14.33
		c7.91,0,14.33-6.42,14.33-14.33v-52.19C575.28,735.43,552.83,712.54,524.17,712.54z"/>
	<path class="st0" d="M688.66,752.32c0-20.32-16.47-37-37-37H596.9c-7.92,0-14.33,6.42-14.33,14.33v87.05
		c0,7.91,6.41,14.33,14.33,14.33c7.91,0,14.33-6.42,14.33-14.33v-73.57h38.93c5.35,0,9.84,4.49,9.84,9.84
		c0,5.35-4.49,9.84-9.84,9.84h-17.54c-6.85,0-12.41,5.56-12.41,12.4c0,3.21,1.07,6.2,3.21,8.34l38.92,42.99
		c5.13,5.56,14.12,5.99,19.89,0.86c5.78-5.13,6.42-14.33,1.07-19.89l-19.25-20.32C678.39,782.05,688.66,768.36,688.66,752.32z"/>
	<path class="st0" d="M732.07,743.13v73.57c0,7.91,6.42,14.33,14.33,14.33c7.91,0,14.33-6.42,14.33-14.33v-73.57h29.51
		c7.7,0,13.9-6.2,13.9-13.9c0-7.7-6.2-13.9-13.9-13.9h-87.69c-7.7,0-13.9,6.2-13.9,13.9c0,7.7,6.2,13.9,13.9,13.9H732.07z"/>
	<path class="st0" d="M729.63,699.04h65.8c4.82,0,8.72-3.91,8.72-8.72c0-4.82-3.91-8.72-8.72-8.72h-65.8
		c-4.82,0-8.72,3.91-8.72,8.72C720.91,695.14,724.81,699.04,729.63,699.04z"/>
	<path class="st0" d="M540,550.7c83.32,0,150.86-67.54,150.86-150.86S623.32,248.97,540,248.97c-83.32,0-150.86,67.54-150.86,150.86
		S456.68,550.7,540,550.7z M572.34,350.56L572.34,350.56c3.48-3.48,9.12-3.48,12.6,0l37.37,37.37l6.3,6.3
		c3.48,3.48,3.48,9.12,0,12.6l-6.3,6.3l-37.37,37.37c-3.48,3.48-9.12,3.48-12.6,0c-3.48-3.48-3.48-9.12,0-12.6l31.07-31.07
		c3.48-3.48,3.48-9.12,0-12.6l-31.07-31.07C568.86,359.67,568.86,354.03,572.34,350.56z M506.21,325.29L506.21,325.29
		c5.24-5.24,13.73-5.24,18.96,0l56.26,56.26l9.48,9.48c5.24,5.24,5.24,13.73,0,18.96l-9.48,9.48l-56.26,56.26
		c-5.24,5.24-13.73,5.24-18.96,0v0c-5.24-5.24-5.24-13.73,0-18.96L552.99,410c5.24-5.24,5.24-13.73,0-18.96l-46.78-46.78
		C500.97,339.02,500.97,330.53,506.21,325.29z M451.4,394.22l6.3-6.3l37.37-37.37c3.48-3.48,9.12-3.48,12.6,0h0
		c3.48,3.48,3.48,9.12,0,12.6l-31.07,31.07c-3.48,3.48-3.48,9.12,0,12.6l31.07,31.07c3.48,3.48,3.48,9.12,0,12.6l0,0
		c-3.48,3.48-9.12,3.48-12.6,0l-37.37-37.37l-6.3-6.3C447.92,403.34,447.92,397.7,451.4,394.22z"/>
</g>
</svg>
